<svg width="24" height="24" viewBox="0 0 24 24" fill="none" xmlns="http://www.w3.org/2000/svg">
    <g opacity="0.75" clip-path="url(#clip0_3_65332)">
        <path
            d="M15.7411 8.2268L15.7411 8.22683L15.7464 8.2291C16.0989 8.38016 16.4019 8.58616 16.6598 8.84739C16.9193 9.11018 17.1249 9.41681 17.2768 9.77118L17.2774 9.77277C17.4247 10.1132 17.5 10.4808 17.5 10.8809C17.5 11.2748 17.4236 11.647 17.2711 12.0017L17.2702 12.0038C17.12 12.3577 16.9066 12.6734 16.6269 12.9531L16.6262 12.9538L12.1738 17.4238C12.1737 17.4239 12.1736 17.424 12.1735 17.4241C12.1302 17.4674 12.1016 17.4828 12.0902 17.4877C12.0827 17.4909 12.0565 17.5 12 17.5C11.9435 17.5 11.9173 17.4909 11.9099 17.4877C11.8984 17.4828 11.8698 17.4674 11.8265 17.4241C11.8264 17.424 11.8263 17.4239 11.8262 17.4238L7.37964 12.9596L7.37894 12.9589C7.09921 12.6792 6.88332 12.361 6.72888 12.0017C6.57637 11.647 6.5 11.2748 6.5 10.8809C6.5 10.4808 6.57525 10.1132 6.72256 9.77277L6.72256 9.77278L6.72324 9.77118C6.87512 9.41681 7.0807 9.11018 7.34017 8.84739C7.59888 8.58536 7.90067 8.37928 8.24934 8.22842L8.24934 8.22842L8.25142 8.22751C8.5959 8.0766 8.96481 8 9.36328 8C9.60552 8 9.8228 8.02559 10.0173 8.07343C10.219 8.12303 10.4095 8.19375 10.5896 8.28543C10.7719 8.37823 10.9451 8.49135 11.1096 8.62561L11.1095 8.62571L11.1183 8.63253C11.2947 8.77015 11.4696 8.92699 11.6428 9.1038L12 9.46842L12.3572 9.1038C12.5316 8.92572 12.7059 8.76788 12.8797 8.62949L12.8807 8.62872C13.0505 8.49291 13.227 8.37881 13.4104 8.28543C13.5905 8.19375 13.781 8.12303 13.9827 8.07343C14.1772 8.02559 14.3945 8 14.6367 8C15.0352 8 15.4015 8.0766 15.7411 8.2268Z"
            fill="black" stroke="black" />
        <path
            d="M5.2303 2.93739C4.90804 2.61251 4.94039 2.07464 5.31921 1.8192C6.60582 0.951641 8.06795 0.327965 9.64054 0.0137579C10.0875 -0.0755399 10.4874 0.281741 10.4874 0.741053C10.4874 1.12109 10.2095 1.44032 9.84041 1.51761C8.53201 1.79158 7.31274 2.31078 6.23202 3.02538C5.91694 3.23372 5.49674 3.20599 5.2303 2.93739Z"
            fill="black" />
        <path
            d="M20.0711 5.11664C20.289 5.38055 20.6465 5.48914 20.9654 5.36857C21.4313 5.19245 21.609 4.62096 21.2941 4.23262C19.5633 2.09826 17.1241 0.570433 14.3383 0.0137847C13.8914 -0.0755183 13.4913 0.281741 13.4913 0.741053C13.4913 1.12109 13.7693 1.44034 14.1384 1.51763C16.5051 2.01324 18.5801 3.31119 20.0711 5.11664Z"
            fill="black" />
        <path
            d="M21.9796 18.615C21.7262 18.9969 21.1927 19.0295 20.8704 18.7047C20.6039 18.4361 20.5764 18.0125 20.7831 17.6948C21.8677 16.0278 22.4986 14.0339 22.4986 11.8914C22.4986 10.8798 22.3579 9.90133 22.0953 8.97476C21.982 8.57511 22.1765 8.1434 22.5626 7.99746C22.9533 7.84976 23.3909 8.05076 23.5092 8.45418C23.8286 9.54378 24 10.6974 24 11.8914C24 14.3791 23.2558 16.6916 21.9796 18.615Z"
            fill="black" />
        <path
            d="M0.728993 11.8918C1.14359 11.8918 1.47691 12.2317 1.50612 12.6487C1.89136 18.1467 6.43785 22.4864 11.9898 22.4864C14.1151 22.4864 16.0931 21.8505 17.7467 20.7571C18.0618 20.5487 18.482 20.5765 18.7484 20.8451C19.0707 21.1699 19.0383 21.7078 18.6595 21.9633C16.7515 23.2498 14.4576 24 11.9898 24C5.60837 24 0.389235 18.9834 0.00135688 12.6488C-0.0241883 12.2316 0.314365 11.8918 0.728993 11.8918Z"
            fill="black" />
        <path
            d="M1.34391 8.86424C1.68258 8.86424 1.97827 8.63882 2.09248 8.31741C2.37357 7.52632 2.74534 6.77874 3.19516 6.0874C3.40182 5.76978 3.37431 5.34618 3.10786 5.07758C2.7856 4.75271 2.25204 4.78533 1.99865 5.16721C1.43755 6.01285 0.979295 6.93371 0.641909 7.91161C0.477603 8.38784 0.843741 8.86424 1.34391 8.86424Z"
            fill="black" />
    </g>
    <defs>
        <clipPath id="clip0_3_65332">
            <rect width="24" height="24" fill="white" />
        </clipPath>
    </defs>
</svg>