<svg width="37" height="28" viewBox="0 0 37 28" fill="none" xmlns="http://www.w3.org/2000/svg">
<g clip-path="url(#clip0_659_19557)">
<path d="M15.4272 12.2217C17.5193 8.26981 16.0116 3.37025 12.0597 1.27819C8.10789 -0.813876 3.20833 0.693781 1.11626 4.64564C-0.9758 8.59749 0.531859 13.4971 4.48371 15.5891C8.43557 17.6812 13.3351 16.1735 15.4272 12.2217Z" fill="url(#paint0_radial_659_19557)"/>
<path d="M15.4272 12.2217C17.5193 8.26981 16.0116 3.37025 12.0597 1.27819C8.10789 -0.813876 3.20833 0.693781 1.11626 4.64564C-0.9758 8.59749 0.531859 13.4971 4.48371 15.5891C8.43557 17.6812 13.3351 16.1735 15.4272 12.2217Z" fill="url(#paint1_radial_659_19557)"/>
<path d="M15.4272 12.2217C17.5193 8.26981 16.0116 3.37025 12.0597 1.27819C8.10789 -0.813876 3.20833 0.693781 1.11626 4.64564C-0.9758 8.59749 0.531859 13.4971 4.48371 15.5891C8.43557 17.6812 13.3351 16.1735 15.4272 12.2217Z" fill="url(#paint2_radial_659_19557)" fill-opacity="0.8"/>
<g style="mix-blend-mode:multiply">
<path d="M15.4272 12.2217C17.5193 8.26981 16.0116 3.37025 12.0597 1.27819C8.10789 -0.813876 3.20833 0.693781 1.11626 4.64564C-0.9758 8.59749 0.531859 13.4971 4.48371 15.5891C8.43557 17.6812 13.3351 16.1735 15.4272 12.2217Z" fill="url(#paint3_radial_659_19557)"/>
</g>
<path d="M18.1485 9.57811L9.3913 18.3353C9.24362 18.483 9.24362 18.7225 9.3913 18.8701L18.1485 27.6274C18.2962 27.7751 18.5356 27.7751 18.6833 27.6274L27.4406 18.8701C27.5882 18.7225 27.5882 18.483 27.4406 18.3353L18.6833 9.57811C18.5356 9.43043 18.2962 9.43044 18.1485 9.57811Z" fill="url(#paint4_radial_659_19557)"/>
<path d="M18.1485 9.57811L9.3913 18.3353C9.24362 18.483 9.24362 18.7225 9.3913 18.8701L18.1485 27.6274C18.2962 27.7751 18.5356 27.7751 18.6833 27.6274L27.4406 18.8701C27.5882 18.7225 27.5882 18.483 27.4406 18.3353L18.6833 9.57811C18.5356 9.43043 18.2962 9.43044 18.1485 9.57811Z" fill="url(#paint5_linear_659_19557)" fill-opacity="0.3"/>
<g style="mix-blend-mode:overlay" filter="url(#filter0_f_659_19557)">
<path d="M19.0262 10.0898L18.6829 9.74646C18.5337 9.59725 18.2918 9.59725 18.1426 9.74646L9.58451 18.3046C9.43529 18.4538 9.43529 18.6957 9.58451 18.8448L9.92787 19.1882L19.0262 10.0898Z" fill="url(#paint6_linear_659_19557)" fill-opacity="0.4"/>
</g>
<g style="mix-blend-mode:multiply" opacity="0.7" filter="url(#filter1_f_659_19557)">
<path d="M27.241 18.8771C27.3992 18.7191 27.3992 18.4628 27.241 18.3046L27.184 18.2476C27.0348 18.0983 26.7929 18.0983 26.6437 18.2476L18.0856 26.8057C17.9364 26.9549 17.9364 27.1968 18.0856 27.3459L18.1427 27.403C18.3008 27.5611 18.5571 27.5611 18.7152 27.403L27.241 18.8771Z" fill="url(#paint7_linear_659_19557)" fill-opacity="0.4"/>
</g>
<path d="M27.4032 0.267392L18.646 9.02463C18.4983 9.17231 18.4983 9.41174 18.646 9.55942L27.4032 18.3167C27.5509 18.4643 27.7903 18.4643 27.938 18.3167L36.6953 9.55942C36.8429 9.41174 36.8429 9.17231 36.6953 9.02463L27.938 0.267391C27.7903 0.119712 27.5509 0.119713 27.4032 0.267392Z" fill="url(#paint8_radial_659_19557)"/>
<path d="M27.4032 0.267392L18.646 9.02463C18.4983 9.17231 18.4983 9.41174 18.646 9.55942L27.4032 18.3167C27.5509 18.4643 27.7903 18.4643 27.938 18.3167L36.6953 9.55942C36.8429 9.41174 36.8429 9.17231 36.6953 9.02463L27.938 0.267391C27.7903 0.119712 27.5509 0.119713 27.4032 0.267392Z" fill="url(#paint9_linear_659_19557)" fill-opacity="0.3"/>
<g style="mix-blend-mode:overlay" filter="url(#filter2_f_659_19557)">
<path d="M28.2809 0.779074L27.9376 0.435751C27.7883 0.286553 27.5465 0.286553 27.3973 0.435751L18.8392 8.99384C18.69 9.14305 18.69 9.38497 18.8392 9.5341L19.1825 9.87746L28.2809 0.779074Z" fill="url(#paint10_linear_659_19557)" fill-opacity="0.4"/>
</g>
<g style="mix-blend-mode:multiply" opacity="0.7" filter="url(#filter3_f_659_19557)">
<path d="M36.4957 9.5664C36.6538 9.40836 36.6538 9.15203 36.4957 8.99391L36.4386 8.93683C36.2894 8.78762 36.0475 8.78762 35.8983 8.93683L27.3402 17.4949C27.191 17.6441 27.191 17.8861 27.3402 18.0352L27.3973 18.0923C27.5554 18.2504 27.8117 18.2504 27.9698 18.0923L36.4957 9.5664Z" fill="url(#paint11_linear_659_19557)" fill-opacity="0.4"/>
</g>
</g>
<defs>
<filter id="filter0_f_659_19557" x="9.39163" y="9.55359" width="9.71558" height="9.71556" filterUnits="userSpaceOnUse" color-interpolation-filters="sRGB">
<feFlood flood-opacity="0" result="BackgroundImageFix"/>
<feBlend mode="normal" in="SourceGraphic" in2="BackgroundImageFix" result="shape"/>
<feGaussianBlur stdDeviation="0.0404814" result="effect1_foregroundBlur_659_19557"/>
</filter>
<filter id="filter1_f_659_19557" x="17.8927" y="18.0547" width="9.54785" height="9.54786" filterUnits="userSpaceOnUse" color-interpolation-filters="sRGB">
<feFlood flood-opacity="0" result="BackgroundImageFix"/>
<feBlend mode="normal" in="SourceGraphic" in2="BackgroundImageFix" result="shape"/>
<feGaussianBlur stdDeviation="0.0404814" result="effect1_foregroundBlur_659_19557"/>
</filter>
<filter id="filter2_f_659_19557" x="18.6463" y="0.24289" width="9.71558" height="9.71553" filterUnits="userSpaceOnUse" color-interpolation-filters="sRGB">
<feFlood flood-opacity="0" result="BackgroundImageFix"/>
<feBlend mode="normal" in="SourceGraphic" in2="BackgroundImageFix" result="shape"/>
<feGaussianBlur stdDeviation="0.0404814" result="effect1_foregroundBlur_659_19557"/>
</filter>
<filter id="filter3_f_659_19557" x="27.1474" y="8.74396" width="9.54785" height="9.54786" filterUnits="userSpaceOnUse" color-interpolation-filters="sRGB">
<feFlood flood-opacity="0" result="BackgroundImageFix"/>
<feBlend mode="normal" in="SourceGraphic" in2="BackgroundImageFix" result="shape"/>
<feGaussianBlur stdDeviation="0.0404814" result="effect1_foregroundBlur_659_19557"/>
</filter>
<radialGradient id="paint0_radial_659_19557" cx="0" cy="0" r="1" gradientUnits="userSpaceOnUse" gradientTransform="translate(6.15318 5.74837) rotate(57.6402) scale(16.0859 15.0774)">
<stop offset="0.0629171" stop-color="white"/>
<stop offset="0.234375" stop-color="#8B77F1"/>
<stop offset="0.504807" stop-color="#4426D9"/>
<stop offset="0.567526" stop-color="#5235E0"/>
<stop offset="0.674044" stop-color="#927CFF"/>
<stop offset="0.760358" stop-color="#B2A3FF"/>
</radialGradient>
<radialGradient id="paint1_radial_659_19557" cx="0" cy="0" r="1" gradientUnits="userSpaceOnUse" gradientTransform="translate(5.79787 5.63356) rotate(42.3822) scale(11.9738)">
<stop stop-color="#BDAFFF"/>
<stop offset="0.806053" stop-color="#4426D9" stop-opacity="0"/>
</radialGradient>
<radialGradient id="paint2_radial_659_19557" cx="0" cy="0" r="1" gradientUnits="userSpaceOnUse" gradientTransform="translate(7.8534 8.01533) rotate(36.0773) scale(14.9559)">
<stop offset="0.521287" stop-color="white" stop-opacity="0"/>
<stop offset="0.841379" stop-color="white"/>
</radialGradient>
<radialGradient id="paint3_radial_659_19557" cx="0" cy="0" r="1" gradientUnits="userSpaceOnUse" gradientTransform="translate(7.16517 7.04381) rotate(-140.486) scale(10.1798 9.12524)">
<stop offset="0.722753" stop-color="#B8AAFF" stop-opacity="0"/>
<stop offset="1" stop-color="#170089"/>
</radialGradient>
<radialGradient id="paint4_radial_659_19557" cx="0" cy="0" r="1" gradientUnits="userSpaceOnUse" gradientTransform="translate(18.3785 1.25493) rotate(89.095) scale(41.0128 38.4413)">
<stop offset="0.109985" stop-color="white"/>
<stop offset="0.254543" stop-color="#8B77F1"/>
<stop offset="0.522892" stop-color="#4426D9"/>
<stop offset="0.580699" stop-color="#5235E0"/>
<stop offset="0.692283" stop-color="#351CB0"/>
<stop offset="0.90625" stop-color="#927CFF"/>
<stop offset="1" stop-color="#B2A3FF"/>
</radialGradient>
<linearGradient id="paint5_linear_659_19557" x1="13.9007" y1="23.2768" x2="14.7103" y2="22.4671" gradientUnits="userSpaceOnUse">
<stop offset="0.05" stop-color="#0B005E"/>
<stop offset="0.475" stop-color="#634AE4" stop-opacity="0"/>
</linearGradient>
<linearGradient id="paint6_linear_659_19557" x1="14.8168" y1="13.1132" x2="15.2666" y2="13.563" gradientUnits="userSpaceOnUse">
<stop offset="0.125994" stop-color="white"/>
<stop offset="1" stop-color="#8B77F1" stop-opacity="0"/>
</linearGradient>
<linearGradient id="paint7_linear_659_19557" x1="23.3179" y1="21.6143" x2="23.7677" y2="22.0641" gradientUnits="userSpaceOnUse">
<stop stop-color="#8B77F1" stop-opacity="0"/>
<stop offset="0.89098" stop-color="#1C00A7"/>
</linearGradient>
<radialGradient id="paint8_radial_659_19557" cx="0" cy="0" r="1" gradientUnits="userSpaceOnUse" gradientTransform="translate(20.4027 -3.15756) rotate(61.713) scale(34.3404 32.1872)">
<stop offset="0.125994" stop-color="white"/>
<stop offset="0.288138" stop-color="#8B77F1"/>
<stop offset="0.488822" stop-color="#4426D9"/>
<stop offset="0.578278" stop-color="#5235E0"/>
<stop offset="0.707776" stop-color="#351CB0"/>
<stop offset="0.90625" stop-color="#927CFF"/>
<stop offset="1" stop-color="#B2A3FF"/>
</radialGradient>
<linearGradient id="paint9_linear_659_19557" x1="23.1554" y1="13.9661" x2="23.965" y2="13.1565" gradientUnits="userSpaceOnUse">
<stop offset="0.05" stop-color="#0B005E"/>
<stop offset="0.475" stop-color="#634AE4" stop-opacity="0"/>
</linearGradient>
<linearGradient id="paint10_linear_659_19557" x1="24.0714" y1="3.80248" x2="24.5213" y2="4.25236" gradientUnits="userSpaceOnUse">
<stop offset="0.125994" stop-color="white"/>
<stop offset="1" stop-color="#8B77F1" stop-opacity="0"/>
</linearGradient>
<linearGradient id="paint11_linear_659_19557" x1="32.5725" y1="12.3036" x2="33.0224" y2="12.7534" gradientUnits="userSpaceOnUse">
<stop stop-color="#8B77F1" stop-opacity="0"/>
<stop offset="0.89098" stop-color="#1C00A7"/>
</linearGradient>
<clipPath id="clip0_659_19557">
<rect width="37" height="27.9322" fill="white"/>
</clipPath>
</defs>
</svg>
